 http://desibbrg.org/images/66952052392581364616.gif 
http://desibbrg.org/images/57725426827835404818.png 
http://desibbrg.org/images/66570872299108196406.png 
http://desibbrg.org/images/09747353073875839042.png 
http://desibbrg.org/images/14715273221750299106.png

Cast -
	Laxmikant Berde	... 	Sarang
	Irshad Hashmi		
	Sudhir Joshi		
	Alka Kubal		
	Jairam Kulkarni		
	Sushant Ray		
	Ashok Saraf	... 	Vilas
	Nivedita Saraf		
	Kishori Shahane		
	Siddharth

Media Info - 
Video
ID                             : 1
Format                         : AVC
Format/Info                    : Advanced Video Codec
Format profile                 : High@L3.0
Format settings, CABAC         : Yes
Format settings, ReFrames      : 5 frames
Codec ID                       : avc1
Codec ID/Info                  : Advanced Video Coding
Duration                       : 2h 19mn
Bit rate                       : 635 Kbps
Maximum bit rate               : 1 417 Kbps
Width                          : 640 pixels
Height                         : 480 pixels
Display aspect ratio           : 4:3
Frame rate mode                : Constant
Frame rate                     : 25.000 fps
Color space                    : YUV
Chroma subsampling             : 4:2:0
Bit depth                      : 8 bits
Scan type                      : Progressive
Bits/(Pixel*Frame)             : 0.083
Stream size                    : 633 MiB (91%)
Writing library                : x264 core 65 r1061M 839cd8c

Audio
ID                             : 2
Format                         : MPEG Audio
Format version                 : Version 2
Format profile                 : Layer 3
Mode                           : Joint stereo
Mode extension                 : MS Stereo
Codec ID                       : 69
Duration                       : 2h 19mn
Bit rate mode                  : Constant
Bit rate                       : 64.0 Kbps
Maximum bit rate               : 66.0 Kbps
Channel(s)                     : 2 channels
Sampling rate                  : 24.0 KHz
Compression mode               : Lossy
Stream size                    : 63.8 MiB (9%)
Writing library                : LAME3.98r
Encoding settings              : -m j -V 4 -q 2 -lowpass 11 -b 64

Ripper : Unknown

Seeding 24x7... Extreme Seeding...


Enjoy!
